# AST/ASF file generated using VICON BodyLanguage
# -----------------------------------------------
:version 1.10
:name VICON
:units
  mass 1.0
  length 0.45
  angle deg
:documentation
   .ast/.asf automatically generated from VICON data using
   VICON BodyBuilder and BodyLanguage model FoxedUp or BRILLIANT.MOD
:root
   order TX TY TZ RX RY RZ
   axis XYZ
   position 0 0 0  
   orientation 0 0 0 
:bonedata
  begin
     id 1 
     name lhipjoint
     direction 0.653368 -0.678499 0.335782 
     length 2.51848 
     axis 0 0 0  XYZ
  end
  begin
     id 2 
     name lfemur
     direction 0.34202 -0.939693 0  
     length 6.57749  
     axis 0 0 20  XYZ
    dof rx ry rz
    limits (-160.0 20.0)
           (-70.0 70.0)
           (-60.0 70.0)
  end
  begin
     id 3 
     name ltibia
     direction 0.34202 -0.939693 0   
     length 7.94618   
     axis 0 0 20   XYZ
    dof rx
    limits (-10.0 170.0)
  end
  begin
     id 4 
     name lfoot
     direction 0.0811271 -0.222895 0.971461   
     length 2.31339   
     axis -90 7.62852e-016 20   XYZ
    dof rx rz
    limits (-45.0 90.0)
           (-70.0 20.0)
  end
  begin
     id 5 
     name ltoes
     direction 1.53568e-011 -4.21885e-011 1   
     length 1.15935   
     axis -90 7.62852e-016 20   XYZ
    dof rx
    limits (-90.0 20.0)
  end
  begin
     id 6 
     name rhipjoint
     direction -0.640058 -0.688614 0.340788   
     length 2.48149  
     axis 0 0 0  XYZ 
  end
  begin
     id 7 
     name rfemur
     direction -0.34202 -0.939693 0   
     length 6.57875   
     axis 0 0 -20   XYZ
    dof rx ry rz
    limits (-160.0 20.0)
           (-70.0 70.0)
           (-70.0 60.0)
  end
  begin
     id 8 
     name rtibia
     direction -0.34202 -0.939693 0   
     length 7.977   
     axis 0 0 -20   XYZ
    dof rx
    limits (-10.0 170.0)
 end
 begin
     id 9 
     name rfoot
     direction -0.0979793 -0.269196 0.958089   
     length 2.19857  
     axis -90 -7.62852e-016 -20   XYZ
    dof rx rz
    limits (-45.0 90.0)
           (-20.0 70.0)
  end
  begin
     id 10 
     name rtoes
     direction -1.53556e-011 -4.21868e-011 1   
     length 1.09838   
     axis -90 -7.62852e-016 -20   XYZ
    dof rx
    limits (-90.0 20.0)
  end
  begin
     id 11 
     name lowerback
     direction 0.0149039 0.998517 -0.0523597   
     length 2.10809   
     axis 0 0 0   XYZ
    dof rx ry rz
    limits (-20.0 45.0)
           (-30.0 30.0)
           (-30.0 30.0)
  end
  begin
     id 12 
     name upperback
     direction -0.00882659 0.999418 -0.0329624   
     length 2.1102   
     axis 0 0 0   XYZ
    dof rx ry rz
    limits (-20.0 45.0)
           (-30.0 30.0)
           (-30.0 30.0)
  end
  begin
     id 13 
     name thorax
     direction -0.0165585 0.999826 -0.0085833   
     length 2.11039   
     axis 0 0 0   XYZ
    dof rx ry rz
    limits (-20.0 45.0)
           (-30.0 30.0)
           (-30.0 30.0)
  end
  begin
     id 14 
     name lowerneck
     direction -0.0130877 0.999911 0.00260353   
     length 1.73253   
     axis 0 0 0   XYZ
    dof rx ry rz
    limits (-20.0 45.0)
           (-30.0 30.0)
           (-30.0 30.0)
  end
  begin
     id 15 
     name upperneck
     direction -0.0348454 0.928205 -0.370435   
     length 1.66692   
     axis 0 0 0   XYZ
    dof rx ry rz
    limits (-20.0 45.0)
           (-30.0 30.0)
           (-30.0 30.0)
  end
  begin
     id 16
     name head
     direction -0.00807754 0.992494 -0.122026  
     length 1.72765  
     axis 0 0 0   XYZ
    dof rx ry rz
    limits (-20.0 45.0)
           (-30.0 30.0)
           (-30.0 30.0)
  end
  begin
     id 17 
     name lclavicle
     direction 0.987582 0.144023 0.0627671  
     length 3.49235  
     axis 0 0 0   XYZ
    dof ry rz
    limits (-20.0 10.0)
           (0.0 20.0)
  end
  begin
     id 18 
     name lhumerus
     direction 1 -4.48958e-011 -1.45183e-018   
     length 5.41917   
     axis 180 -30 -90   XYZ
    dof rx ry rz
    limits (-60.0 90.0)
           (-90.0 90.0)
           (-90.0 90.0)
  end
  begin
     id 19
     name lradius
     direction 1 -4.48999e-011 5.75106e-027   
     length 2.44373   
     axis 180 -30 -90   XYZ
    dof rx
    limits (-10.0 170.0)
  end
  begin
     id 20
     name lwrist
     direction 1 -4.48987e-011 1.53461e-026   
     length 1.22186   
     axis -1.09697e-014 90 90   XYZ
    dof ry
    limits (-180.0 0.0)
 end
  begin
     id 21 
     name lhand
     direction 1 -4.48881e-011 3.06923e-026   
     length 0.727502   
     axis -1.95843e-014 90 90   XYZ
    dof rx rz
    limits (-90.0 90.0)
           (-45.0 45.0)
  end
  begin
     id 22 
     name lfingers
     direction 1 -4.48907e-011 6.13845e-026   
     length 0.586531   
     axis -3.91686e-014 90 90   XYZ
    dof rx
    limits (0.0 90.0)
  end
  begin
     id 23
     name lthumb
     direction 0.707107 -6.3487e-011 0.707107   
     length 0.842145   
     axis -90 45 2.85299e-015   XYZ
    dof rx rz
    limits (-45.0 45.0)
           (-45.0 45.0)
  end
  begin
     id 24 
     name rclavicle
     direction -0.980998 0.169556 0.0943023   
     length 3.29272  
     axis 0 0 0   XYZ 
    dof ry rz
    limits (-10.0 20.0)
           (-20.0 0.0)
  end
  begin
     id 25 
     name rhumerus
     direction -1 -1.83355e-005 2.45537e-005  
     length 5.58976   
     axis 180 30 90   XYZ
    dof rx ry rz
    limits (-90.0 60.0)
           (-90.0 90.0)
           (-90.0 90.0)
  end
  begin
     id 26 
     name rradius
     direction -1 -4.48967e-011 5.97228e-027   
     length 2.4806   
     axis 180 30 90   XYZ
    dof rx
    limits (-10.0 170.0)
  end
  begin
     id 27 
     name rwrist
     direction -1 -4.48963e-011 1.53461e-026   
     length 1.2403   
     axis -1.09697e-014 -90 -90   XYZ
    dof ry
    limits (-180.0 0.0)
  end
  begin
     id 28
     name rhand
     direction -1 -4.48881e-011 3.06923e-026   
     length 0.816009   
     axis -1.95843e-014 -90 -90   XYZ
    dof rx rz
    limits (-90.0 90.0)
           (-45.0 45.0)
  end
  begin
     id 29
     name rfingers
     direction -1 -4.49018e-011 6.13845e-026   
     length 0.657887   
     axis -3.91686e-014 -90 -90   XYZ
    dof rx
    limits (0.0 90.0)
  end
  begin
     id 30
     name rthumb
     direction -0.707107 -6.34872e-011 0.707107   
     length 0.944599   
     axis -90 -45 -2.85299e-015   XYZ
    dof rx rz
    limits (-45.0 45.0)
           (-45.0 45.0)
  end
:hierarchy
  begin
    root lhipjoint rhipjoint lowerback
    lhipjoint lfemur
    lfemur ltibia
    ltibia lfoot
    lfoot ltoes
    rhipjoint rfemur
    rfemur rtibia
    rtibia rfoot
    rfoot rtoes
    lowerback upperback
    upperback thorax
    thorax lowerneck lclavicle rclavicle
    lowerneck upperneck
    upperneck head
    lclavicle lhumerus
    lhumerus lradius
    lradius lwrist
    lwrist lhand lthumb
    lhand lfingers
    rclavicle rhumerus
    rhumerus rradius
    rradius rwrist
    rwrist rhand rthumb
    rhand rfingers
  end

#!OML:ASF F:\VICON\USERDATA\INSTALL\rory3\rory3.ASF
:FULLY-SPECIFIED
:DEGREES
71
root 4.3233 16.5575 -15.1033 30.5862 9.03491 -3.35209
lowerback -18.4666 -1.10092 3.96557
upperback -11.4873 -2.00218 4.33097
thorax -2.0127 -1.04881 2.02805
lowerneck -18.9901 -0.1928 2.1486
upperneck 41.3391 -0.158868 -2.3524
head 18.9516 -0.032302 -1.549
rclavicle -2.1183e-014 -1.74931e-014
rhumerus -52.3449 1.12335 -75.3961
rradius 19.6662
rwrist -5.34146
rhand 7.67219 13.2961
rfingers 7.12502
rthumb 32.9153 -13.7219
lclavicle -2.1183e-014 -1.74931e-014
lhumerus -60.4175 -4.20187 91.9011
lradius 29.0149
lwrist 0.0894132
lhand 6.54533 16.8965
lfingers 7.12502
lthumb 31.8428 44.1338
rfemur -44.0106 5.74124 33.5163
rtibia 29.8028
rfoot -31.5219 -33.1743
rtoes 19.4992
lfemur -22.172 19.3065 -27.4149
ltibia 39.7036
lfoot 41.5602 33.0842
ltoes 1.91164
72
root 4.32119 16.5594 -15.1045 30.6574 8.9582 -3.20005
lowerback -18.4954 -1.12698 3.73872
upperback -11.467 -2.00621 4.32018
thorax -1.96592 -1.03901 2.14177
lowerneck -18.916 -0.266223 1.94027
upperneck 41.3199 -0.209168 -2.30136
head 18.9174 -0.0787319 -1.49599
rclavicle 3.10601e-016 -2.94201e-014
rhumerus -52.3565 1.52522 -75.6939
rradius 19.7733
rwrist -5.21191
rhand 7.95595 13.3139
rfingers 7.12502
rthumb 33.1851 -13.6471
lclavicle 3.10601e-016 -2.94201e-014
lhumerus -60.3112 -4.27886 92.0517
lradius 28.8717
lwrist 0.4163
lhand 6.62808 16.9783
lfingers 7.12502
lthumb 31.9216 44.1999
rfemur -44.2487 6.17691 33.0972
rtibia 29.9747
rfoot -31.5226 -33.8484
rtoes 18.8588
lfemur -22.1458 19.1871 -27.6078
ltibia 39.5972
lfoot 41.2482 33.4349
ltoes 1.98274
73
root 4.32105 16.5653 -15.1019 30.6802 8.82903 -3.11722
lowerback -18.4885 -1.11047 3.56996
upperback -11.4158 -1.96255 4.2926
thorax -1.90737 -1.00874 2.21282
lowerneck -18.9059 -0.319266 1.9017
upperneck 41.2312 -0.247623 -2.367
head 18.8579 -0.110915 -1.5263
rclavicle -9.69696e-015 3.26007e-014
rhumerus -52.337 2.04462 -76.1672
rradius 19.8347
rwrist -5.42042
rhand 8.42815 13.663
rfingers 7.12502
rthumb 33.634 -13.2012
lclavicle -9.69696e-015 3.26007e-014
lhumerus -60.1665 -4.29697 92.0408
lradius 28.7711
lwrist 0.481678
lhand 6.83922 16.9964
lfingers 7.12502
lthumb 32.1226 44.1776
rfemur -44.4745 6.55854 32.7556
rtibia 30.1669
rfoot -31.132 -34.6201
rtoes 17.4836
lfemur -22.0523 19.1968 -27.7646
ltibia 39.4407
lfoot 41.3374 33.2083
ltoes 1.16633
74
root 4.32138 16.5666 -15.1009 30.661 8.71104 -3.14484
lowerback -18.4559 -1.02088 3.55621
upperback -11.3835 -1.8422 4.21018
thorax -1.89226 -0.949744 2.15227
lowerneck -18.8192 -0.399476 1.97267
upperneck 41.208 -0.366554 -2.4449
head 18.8139 -0.157698 -1.59962
rclavicle 1.54741e-014 -3.02153e-014
rhumerus -52.3677 2.14858 -76.3829
rradius 19.8296
rwrist -5.23821
rhand 9.23252 14.0548
rfingers 7.12502
rthumb 34.3981 -12.6397
lclavicle 1.54741e-014 -3.02153e-014
lhumerus -60.1591 -4.31801 91.8035
lradius 28.7912
lwrist 0.165736
lhand 7.05231 16.7816
lfingers 7.12502
lthumb 32.3255 43.9217
rfemur -44.6038 6.94947 32.5531
rtibia 30.3513
rfoot -31.1975 -35.0057
rtoes 16.9297
lfemur -21.9407 19.2853 -27.8107
ltibia 39.3013
lfoot 41.6072 32.5643
ltoes -0.126004
75
root 4.33834 16.5725 -15.1043 30.4997 8.97526 -3.19323
lowerback -18.2512 -0.994146 3.92973
upperback -11.3851 -1.84744 4.14865
thorax -2.01544 -0.974756 1.88061
lowerneck -18.5942 -0.456921 1.98178
upperneck 41.1901 -0.42642 -2.51049
head 18.7376 -0.189381 -1.64171
rclavicle 6.81459e-015 8.74653e-015
rhumerus -52.4739 2.17007 -76.3948
rradius 19.8499
rwrist -4.56251
rhand 9.89608 14.3288
rfingers 7.12502
rthumb 35.0278 -12.2208
lclavicle 6.81459e-015 8.74653e-015
lhumerus -60.2134 -4.2952 91.671
lradius 28.6301
lwrist -0.099144
lhand 7.05758 16.3175
lfingers 7.12502
lthumb 32.3305 43.4566
rfemur -44.4799 5.93339 33.0469
rtibia 30.4054
rfoot -30.6364 -34.5024
rtoes 15.9635
lfemur -21.6645 19.177 -27.6546
ltibia 39.2226
lfoot 42.0626 31.6373
ltoes -2.09306
76
root 4.32625 16.5662 -15.1029 30.5684 8.5932 -3.10623
lowerback -18.2361 -0.949275 3.54888
upperback -11.3977 -1.73278 4.13337
thorax -2.0232 -0.898026 2.09686
lowerneck -18.5506 -0.504385 1.94334
upperneck 41.2264 -0.447966 -2.59214
head 18.7465 -0.215443 -1.67898
rclavicle 3.8266e-015 2.38542e-015
rhumerus -52.5178 2.38009 -76.5277
rradius 19.8865
rwrist -4.19802
rhand 10.1653 14.6276
rfingers 7.12502
rthumb 35.2831 -11.8618
lclavicle 3.8266e-015 2.38542e-015
lhumerus -60.1767 -4.29872 91.6496
lradius 28.4793
lwrist -0.105074
lhand 7.21812 16.1572
lfingers 7.12502
lthumb 32.4833 43.265
rfemur -44.5424 7.3297 32.2538
rtibia 30.3702
rfoot -31.5717 -35.2049
rtoes 17.3626
lfemur -21.7603 19.376 -27.9224
ltibia 39.2259
lfoot 40.3335 34.0865
ltoes 2.67407
77
root 4.33931 16.5689 -15.105 30.3567 8.95376 -3.49304
lowerback -17.9544 -0.880832 4.22962
upperback -11.3782 -1.72275 4.19252
thorax -2.17175 -0.927682 1.78446
lowerneck -18.5361 -0.543978 1.88306
upperneck 41.2465 -0.488767 -2.5838
head 18.7534 -0.239768 -1.67293
rclavicle 2.43511e-015 -6.36111e-015
rhumerus -52.617 2.91688 -77.0402
rradius 20.2407
rwrist -4.59727
rhand 10.4371 14.12
rfingers 7.12502
rthumb 35.5408 -12.3081
lclavicle 2.43511e-015 -6.36111e-015
lhumerus -60.1732 -4.32047 91.6607
lradius 28.5216
lwrist 0.120445
lhand 7.42479 16.4669
lfingers 7.12502
lthumb 32.6799 43.5341
rfemur -44.2426 6.47766 33.1262
rtibia 30.251
rfoot -31.1403 -34.6073
rtoes 17.2136
lfemur -21.5827 19.362 -27.3506
ltibia 39.2961
lfoot 38.56 36.1668
ltoes 7.27415
78
root 4.34587 16.5658 -15.1082 30.3246 9.0024 -3.47965
lowerback -17.885 -0.874132 4.30477
upperback -11.2865 -1.72566 4.19429
thorax -2.10985 -0.932106 1.74254
lowerneck -18.8299 -0.561938 1.77501
upperneck 41.3256 -0.480354 -2.57723
head 18.8847 -0.251975 -1.65512
rclavicle 4.1459e-014 -1.59028e-015
rhumerus -52.5568 3.44903 -77.4919
rradius 20.6223
rwrist -5.14509
rhand 10.8859 13.6085
rfingers 7.12502
rthumb 35.9661 -12.7163
lclavicle 4.1459e-014 -1.59028e-015
lhumerus -59.9986 -4.2431 91.6433
lradius 28.5381
lwrist 0.304869
lhand 7.16897 16.2951
lfingers 7.12502
lthumb 32.4365 43.4125
rfemur -44.0421 6.04744 33.3237
rtibia 30.0883
rfoot -31.1616 -33.9493
rtoes 18.1001
lfemur -21.592 19.3739 -27.3706
ltibia 39.4087
lfoot 41.2363 32.4106
ltoes -0.654544
79
root 4.34871 16.5587 -15.1116 30.3548 8.93328 -3.39318
lowerback -17.9411 -0.891268 4.22775
upperback -11.0565 -1.75671 4.19116
thorax -1.82615 -0.940338 1.77002
lowerneck -19.5551 -0.552021 1.76301
upperneck 41.4222 -0.430792 -2.67213
head 19.1498 -0.247881 -1.70219
rclavicle 3.44643e-014 -3.89618e-014
rhumerus -52.1415 3.87968 -77.8596
rradius 20.7974
rwrist -5.60475
rhand 11.2742 13.3938
rfingers 7.12502
rthumb 36.3339 -12.84
lclavicle 3.44643e-014 -3.89618e-014
lhumerus -59.5282 -4.14745 91.5543
lradius 28.5841
lwrist 0.386205
lhand 6.91566 15.7547
lfingers 7.12502
lthumb 32.1954 42.9212
rfemur -43.8808 5.6477 33.4517
rtibia 29.8934
rfoot -31.1437 -33.3065
rtoes 18.5457
lfemur -21.6693 19.3986 -27.5294
ltibia 39.5312
lfoot 33.5629 40.9256
ltoes 17.3733
